<svg width="115" height="112" viewBox="0 0 115 112" fill="none" xmlns="http://www.w3.org/2000/svg">
<path fill-rule="evenodd" clip-rule="evenodd" d="M58.4809 4.40963C74.2302 5.08842 90.4663 7.24892 101.008 18.9734C112.275 31.5051 116.983 48.9678 113.339 65.4234C109.667 82.0025 97.8125 95.4612 82.4637 102.715C67.2605 109.9 49.7738 109.746 34.518 102.674C18.9609 95.4619 6.98157 82.2377 2.55018 65.6683C-2.09678 48.2929 -1.02945 28.3792 11.0964 15.0983C22.5844 2.51592 41.4618 3.67612 58.4809 4.40963Z" fill="#FCF5DE"/>
<path d="M74.1095 58.0233L54.1061 80.4528C52.6702 82.0373 49.9965 80.7004 50.4916 78.6208L53.9081 64.559C54.2546 63.2222 53.2149 61.9843 51.878 61.9843H41.9753C40.2919 61.9843 39.3016 60.0533 40.2919 58.6174L60.2953 31.7317C61.6321 29.9492 64.4049 31.2365 63.9593 33.4151L60.2953 52.0817C60.0477 53.3195 61.038 54.6068 62.3253 54.6068H72.4756C74.2581 54.5078 75.2978 56.6864 74.1095 58.0233Z" fill="#FFDC79"/>
<path d="M27.5669 60.4493H34.4988C35.3405 60.4493 35.9842 59.8056 35.9842 58.9639C35.9842 58.1222 35.3405 57.4785 34.4988 57.4785H27.5669C26.7252 57.4785 26.0815 58.1222 26.0815 58.9639C26.0815 59.7561 26.7252 60.4493 27.5669 60.4493Z" fill="#193765"/>
<path d="M30.7361 73.6201C31.1817 74.3133 32.0729 74.5609 32.7661 74.1153L37.866 71.0454C38.3116 70.7484 38.6087 70.2532 38.6087 69.7581C38.6087 69.5105 38.5592 69.2135 38.4106 69.0154C37.965 68.3222 37.0738 68.0746 36.3806 68.5203L31.2807 71.5901C30.538 71.9862 30.34 72.927 30.7361 73.6201Z" fill="#193765"/>
<path d="M38.3611 48.8633C38.5096 48.6157 38.5592 48.3682 38.5592 48.1206C38.5592 47.6255 38.3116 47.1303 37.8165 46.8333L32.7166 43.7634C32.0234 43.3178 31.0826 43.5654 30.6865 44.2586C30.2409 44.9517 30.4885 45.8925 31.1817 46.2886L36.2815 49.3584C37.0242 49.8041 37.965 49.606 38.3611 48.8633Z" fill="#193765"/>
<path d="M86.9829 60.4493H80.0511C79.2093 60.4493 78.5657 59.8056 78.5657 58.9639C78.5657 58.1222 79.2093 57.4785 80.0511 57.4785H86.9829C87.8247 57.4785 88.4684 58.1222 88.4684 58.9639C88.4684 59.8056 87.8247 60.4493 86.9829 60.4493Z" fill="#193765"/>
<path d="M83.814 73.6201C83.3684 74.3133 82.4772 74.5609 81.784 74.1153L76.6841 71.0454C76.2385 70.7484 75.9414 70.2532 75.9414 69.7581C75.9414 69.5105 75.9909 69.2135 76.1395 69.0154C76.5851 68.3222 77.4763 68.0746 78.1695 68.5203L83.2694 71.5901C84.0121 71.9862 84.2101 72.927 83.814 73.6201Z" fill="#193765"/>
<path d="M76.1897 48.8633C76.0412 48.6157 75.9917 48.3682 75.9917 48.1206C75.9917 47.6255 76.2393 47.1303 76.7344 46.8333L81.8343 43.7634C82.5275 43.3178 83.4682 43.5654 83.8643 44.2586C84.3099 44.9517 84.0624 45.8925 83.3692 46.2886L78.2693 49.3584C77.5266 49.8041 76.5859 49.606 76.1897 48.8633Z" fill="#193765"/>
</svg>
