<svg width="115" height="112" viewBox="0 0 115 112" fill="none" xmlns="http://www.w3.org/2000/svg">
<g clip-path="url(#clip0)">
<path fill-rule="evenodd" clip-rule="evenodd" d="M91.8344 87.0135C81.7067 98.0784 70.2012 108.592 55.2072 109.105C39.1811 109.653 23.5726 102.403 13.8066 89.6822C3.96716 76.8656 1.40765 59.9923 5.50811 44.3674C9.56966 28.8908 20.3773 16.2384 34.8637 9.44375C49.6361 2.51497 66.6026 1.87137 81.3909 8.7757C96.8985 16.0159 110.761 28.974 113.025 45.936C115.171 62.0058 102.779 75.0564 91.8344 87.0135Z" fill="#FCF5DE"/>
<path d="M81.2345 72.1779V35.3808C81.2345 32.4896 78.869 30.124 75.9778 30.124H33.9239C31.0327 30.124 28.6671 32.4896 28.6671 35.3808V72.1779H23.4104V73.7549C23.4104 76.6461 25.7759 79.0117 28.6671 79.0117H81.2345C84.1257 79.0117 86.4912 76.6461 86.4912 73.7549V72.1779H81.2345Z" fill="white"/>
<rect x="24.8608" y="72.3003" width="60.081" height="5.39092" fill="#FFDC79"/>
<path d="M62.8883 58.5631C62.4678 58.5631 62.0473 58.4054 61.7319 58.0374C61.1536 57.4066 61.2062 56.4078 61.837 55.8296L65.3064 52.7806L61.837 49.7317C61.2062 49.1535 61.1536 48.1547 61.7319 47.5239C62.3101 46.8931 63.3089 46.8405 63.9397 47.4188L68.7233 51.6767C69.0387 51.9921 69.249 52.4127 69.249 52.8332C69.249 53.2538 69.0387 53.7269 68.7233 53.9897L63.9397 58.2477C63.6768 58.4054 63.3089 58.5631 62.8883 58.5631ZM47.013 58.5631C46.645 58.5631 46.2771 58.4579 45.9616 58.1425L41.178 53.8846C40.8626 53.5692 40.6523 53.1486 40.6523 52.7281C40.6523 52.3075 40.8626 51.8344 41.178 51.5716L45.9616 47.3136C46.5925 46.7354 47.5912 46.788 48.1695 47.4188C48.7477 48.0496 48.6952 49.0484 48.0643 49.6266L44.5949 52.7281L48.0643 55.777C48.6952 56.3552 48.7477 57.354 48.1695 57.9848C47.8541 58.3528 47.4335 58.5631 47.013 58.5631ZM52.3223 62.1902C52.1646 62.1902 52.0069 62.1902 51.8492 62.0851C51.0081 61.8222 50.5876 60.9286 50.8504 60.0875L56.1071 44.3173C56.37 43.4762 57.2636 43.0557 58.1047 43.3185C58.9458 43.5814 59.3663 44.475 59.1035 45.3161L53.8468 61.0863C53.5839 61.7697 53.0057 62.1902 52.3223 62.1902Z" fill="#FFDC79"/>
<path d="M60.2074 73.7551H49.694C48.8003 73.7551 48.1169 73.0717 48.1169 72.1781C48.1169 71.2844 48.8003 70.6011 49.694 70.6011H60.2074C61.1011 70.6011 61.7845 71.2844 61.7845 72.1781C61.7845 73.0717 61.1011 73.7551 60.2074 73.7551Z" fill="#193765"/>
<path d="M81.2346 80.5889H28.6673C24.8824 80.5889 21.8335 77.54 21.8335 73.7551V72.1781C21.8335 71.2844 22.5169 70.6011 23.4105 70.6011H41.8091C42.7027 70.6011 43.3861 71.2844 43.3861 72.1781C43.3861 73.0717 42.7027 73.7551 41.8091 73.7551H24.9875C24.9875 75.8052 26.6171 77.4348 28.6673 77.4348H81.2346C83.2847 77.4348 84.9143 75.8052 84.9143 73.7551H68.0928C67.1991 73.7551 66.5158 73.0717 66.5158 72.1781C66.5158 71.2844 67.1991 70.6011 68.0928 70.6011H86.4914C87.385 70.6011 88.0684 71.2844 88.0684 72.1781V73.7551C88.0684 77.54 85.0195 80.5889 81.2346 80.5889Z" fill="#193765"/>
<path d="M81.2345 67.9724C80.3408 67.9724 79.6574 67.289 79.6574 66.3954V35.3806C79.6574 33.3305 78.0279 31.7009 75.9777 31.7009H33.9238C31.8737 31.7009 30.2441 33.3305 30.2441 35.3806V66.3954C30.2441 67.289 29.5608 67.9724 28.6671 67.9724C27.7735 67.9724 27.0901 67.289 27.0901 66.3954V35.3806C27.0901 31.5958 30.139 28.5469 33.9238 28.5469H75.9777C79.7626 28.5469 82.8115 31.5958 82.8115 35.3806V66.3954C82.8115 67.289 82.1281 67.9724 81.2345 67.9724Z" fill="#193765"/>
</g>
<defs>
<clipPath id="clip0">
<rect width="115" height="112" fill="white"/>
</clipPath>
</defs>
</svg>
